<svg xmlns="http://www.w3.org/2000/svg" xmlns:xlink="http://www.w3.org/1999/xlink" viewBox="-191.388 105 93.388 91.541">
  <defs>
    <style>
      .cls-1, .cls-2 {
        fill: none;
      }

      .cls-1 {
        clip-rule: evenodd;
      }

      .cls-3 {
        clip-path: url(#clip-path);
      }

      .cls-4 {
        clip-path: url(#clip-path-2);
      }

      .cls-5 {
        fill: #101010;
      }
    </style>
    <clipPath id="clip-path">
      <path id="path" class="cls-1" d="M93.388,21.786a3.694,3.694,0,0,1-1.128,2.7,3.275,3.275,0,0,1-.739.5,8.518,8.518,0,0,1-5.915,4.4H81.714V59.915a7.707,7.707,0,0,1-7.782,7.63H19.456a7.707,7.707,0,0,1-7.782-7.63V29.4H7.782A7.712,7.712,0,0,1,.039,21.988c0-.057-.039-.114-.039-.172v-.05H0a3.667,3.667,0,0,1,1.128-2.541l42.414-41.6a2.021,2.021,0,0,1,.389-.546,4.094,4.094,0,0,1,5.525,0,2.041,2.041,0,0,1,.389.549l42.414,41.6a3.667,3.667,0,0,1,1.128,2.541h0ZM42.8,59.934h7.782V40.86H42.8V59.934Zm3.891-74.843L9.261,21.767H19.456V59.915H35.02V37.026a3.854,3.854,0,0,1,3.891-3.815H54.476a3.854,3.854,0,0,1,3.891,3.815V59.915H73.932V21.767H84.127Z" transform="translate(0 23.996)"/>
    </clipPath>
    <clipPath id="clip-path-2">
      <path id="path-2" data-name="path" class="cls-2" d="M-244,1838.888H2868.928V-450H-244Z" transform="translate(244 450)"/>
    </clipPath>
  </defs>
  <g id="group" transform="translate(-191.388 104.996)">
    <g id="group-2" data-name="group" class="cls-3" transform="translate(0 0.004)">
      <g id="group-3" data-name="group" class="cls-4" transform="translate(-949.443 -1625.125)">
        <path id="path-3" data-name="path" class="cls-5" d="M-5-29H127.3V100.693H-5Z" transform="translate(934.987 1635.047)"/>
      </g>
    </g>
  </g>
</svg>
